<?xml version="1.0" encoding="UTF-8"?>
<svg xmlns="http://www.w3.org/2000/svg" xmlns:xlink="http://www.w3.org/1999/xlink" width="75pt" height="75pt" viewBox="0 0 75 75" version="1.1">
<g id="surface4721">
<path style=" stroke:none;fill-rule:nonzero;fill:rgb(94.509804%,73.725492%,9.803922%);fill-opacity:1;" d="M 57.75 9 C 57.335938 9 57 9.335938 57 9.75 C 57 10.164062 57.335938 10.5 57.75 10.5 C 58.164062 10.5 58.5 10.164062 58.5 9.75 C 58.5 9.335938 58.164062 9 57.75 9 Z M 57.75 9 "/>
<path style=" stroke:none;fill-rule:nonzero;fill:rgb(90.196079%,92.941177%,71.764708%);fill-opacity:1;" d="M 37.5 9.75 C 22.175781 9.75 9.75 22.175781 9.75 37.5 C 9.75 52.824219 22.175781 65.25 37.5 65.25 C 52.824219 65.25 65.25 52.824219 65.25 37.5 C 65.25 22.175781 52.824219 9.75 37.5 9.75 Z M 37.5 9.75 "/>
<path style=" stroke:none;fill-rule:nonzero;fill:rgb(94.509804%,73.725492%,9.803922%);fill-opacity:1;" d="M 62.25 8.25 C 60.59375 8.25 59.25 9.59375 59.25 11.25 C 59.25 12.90625 60.59375 14.25 62.25 14.25 C 63.90625 14.25 65.25 12.90625 65.25 11.25 C 65.25 9.59375 63.90625 8.25 62.25 8.25 Z M 62.25 8.25 "/>
<path style=" stroke:none;fill-rule:nonzero;fill:rgb(53.333336%,68.235296%,27.058825%);fill-opacity:1;" d="M 65.25 16.5 C 64.421875 16.5 63.75 17.171875 63.75 18 C 63.75 18.828125 64.421875 19.5 65.25 19.5 C 66.078125 19.5 66.75 18.828125 66.75 18 C 66.75 17.171875 66.078125 16.5 65.25 16.5 Z M 65.25 16.5 "/>
<path style=" stroke:none;fill-rule:nonzero;fill:rgb(98.431373%,80.392158%,34.901962%);fill-opacity:1;" d="M 60.75 55.5 C 59.921875 55.5 59.25 56.171875 59.25 57 C 59.25 57.828125 59.921875 58.5 60.75 58.5 C 61.578125 58.5 62.25 57.828125 62.25 57 C 62.25 56.171875 61.578125 55.5 60.75 55.5 Z M 11.25 44.25 C 9.59375 44.25 8.25 45.59375 8.25 47.25 C 8.25 48.90625 9.59375 50.25 11.25 50.25 C 12.90625 50.25 14.25 48.90625 14.25 47.25 C 14.25 45.59375 12.90625 44.25 11.25 44.25 Z M 11.25 44.25 "/>
<path style=" stroke:none;fill-rule:nonzero;fill:rgb(53.333336%,68.235296%,27.058825%);fill-opacity:1;" d="M 18.75 63.75 C 17.921875 63.75 17.25 64.421875 17.25 65.25 C 17.25 66.078125 17.921875 66.75 18.75 66.75 C 19.578125 66.75 20.25 66.078125 20.25 65.25 C 20.25 64.421875 19.578125 63.75 18.75 63.75 Z M 18.75 63.75 "/>
<path style=" stroke:none;fill-rule:nonzero;fill:rgb(100%,100%,100%);fill-opacity:1;" d="M 13.875 36.75 C 12.839844 36.75 12 37.589844 12 38.625 C 12 39.660156 12.839844 40.5 13.875 40.5 C 14.910156 40.5 15.75 39.660156 15.75 38.625 C 15.75 37.589844 14.910156 36.75 13.875 36.75 Z M 59.625 24 C 59.003906 24 58.5 24.503906 58.5 25.125 C 58.5 25.746094 59.003906 26.25 59.625 26.25 C 60.246094 26.25 60.75 25.746094 60.75 25.125 C 60.75 24.503906 60.246094 24 59.625 24 Z M 59.625 24 "/>
<path style=" stroke:none;fill-rule:nonzero;fill:rgb(92.941177%,96.862745%,96.078432%);fill-opacity:1;" d="M 27.007812 56.476562 C 24.8125 56.476562 23.023438 54.777344 23.023438 52.6875 L 23.023438 22.3125 C 23.023438 20.222656 24.8125 18.523438 27.007812 18.523438 L 43.335938 18.523438 L 53.476562 28.21875 L 53.476562 52.6875 C 53.476562 54.777344 51.6875 56.476562 49.492188 56.476562 Z M 27.007812 56.476562 "/>
<path style=" stroke:none;fill-rule:nonzero;fill:rgb(27.843139%,16.862746%,16.078432%);fill-opacity:1;" d="M 43.121094 19.050781 L 48.046875 23.757812 L 52.949219 28.445312 L 52.949219 52.6875 C 52.949219 54.488281 51.398438 55.949219 49.492188 55.949219 L 27.007812 55.949219 C 25.101562 55.949219 23.550781 54.488281 23.550781 52.6875 L 23.550781 22.3125 C 23.550781 20.511719 25.101562 19.050781 27.007812 19.050781 L 43.121094 19.050781 M 43.542969 18 L 27.007812 18 C 24.527344 18 22.5 19.941406 22.5 22.3125 L 22.5 52.6875 C 22.5 55.058594 24.527344 57 27.007812 57 L 49.492188 57 C 51.972656 57 54 55.058594 54 52.6875 L 54 27.996094 C 49.933594 24.109375 47.609375 21.886719 43.542969 18 Z M 43.542969 18 "/>
<path style=" stroke:none;fill-rule:nonzero;fill:rgb(52.156866%,81.176472%,80.000001%);fill-opacity:1;" d="M 43.125 18.90625 L 43.125 24.902344 C 43.125 27.085938 44.921875 28.875 47.117188 28.875 L 53.25 28.875 "/>
<path style=" stroke:none;fill-rule:nonzero;fill:rgb(27.843139%,16.862746%,16.078432%);fill-opacity:1;" d="M 53.25 29.25 L 47.117188 29.25 C 44.710938 29.25 42.75 27.300781 42.75 24.902344 L 42.75 18.90625 L 43.5 18.90625 L 43.5 24.902344 C 43.5 26.886719 45.125 28.5 47.117188 28.5 L 53.25 28.5 Z M 53.25 29.25 "/>
<path style=" stroke:none;fill-rule:nonzero;fill:rgb(27.843139%,16.862746%,16.078432%);fill-opacity:1;" d="M 35.625 21.5625 L 31.3125 21.5625 C 31.210938 21.5625 31.125 21.476562 31.125 21.375 C 31.125 21.273438 31.210938 21.1875 31.3125 21.1875 L 35.625 21.1875 C 35.726562 21.1875 35.8125 21.273438 35.8125 21.375 C 35.8125 21.476562 35.726562 21.5625 35.625 21.5625 Z M 35.625 21.5625 "/>
<path style=" stroke:none;fill-rule:nonzero;fill:rgb(27.843139%,16.862746%,16.078432%);fill-opacity:1;" d="M 48.519531 53.8125 L 27.980469 53.8125 C 26.714844 53.8125 25.6875 52.792969 25.6875 51.535156 L 25.6875 23.464844 C 25.6875 22.207031 26.714844 21.1875 27.980469 21.1875 L 29.625 21.1875 C 29.726562 21.1875 29.8125 21.273438 29.8125 21.375 C 29.8125 21.476562 29.726562 21.5625 29.625 21.5625 L 27.980469 21.5625 C 26.921875 21.5625 26.0625 22.414062 26.0625 23.464844 L 26.0625 51.535156 C 26.0625 52.585938 26.921875 53.4375 27.980469 53.4375 L 48.519531 53.4375 C 49.578125 53.4375 50.4375 52.585938 50.4375 51.535156 L 50.4375 43.125 C 50.4375 43.023438 50.523438 42.9375 50.625 42.9375 C 50.730469 42.9375 50.8125 43.023438 50.8125 43.125 L 50.8125 51.535156 C 50.8125 52.792969 49.785156 53.8125 48.519531 53.8125 Z M 48.519531 53.8125 "/>
<path style=" stroke:none;fill-rule:nonzero;fill:rgb(27.843139%,16.862746%,16.078432%);fill-opacity:1;" d="M 50.625 41.0625 C 50.523438 41.0625 50.4375 40.976562 50.4375 40.875 L 50.4375 37.125 C 50.4375 37.023438 50.523438 36.9375 50.625 36.9375 C 50.726562 36.9375 50.8125 37.023438 50.8125 37.125 L 50.8125 40.875 C 50.8125 40.976562 50.726562 41.0625 50.625 41.0625 Z M 50.625 41.0625 "/>
<path style=" stroke:none;fill-rule:nonzero;fill:rgb(27.843139%,16.862746%,16.078432%);fill-opacity:1;" d="M 50.625 36.25 C 50.523438 36.25 50.4375 36.164062 50.4375 36.0625 L 50.4375 34.375 C 50.4375 34.269531 50.523438 34.1875 50.625 34.1875 C 50.726562 34.1875 50.8125 34.269531 50.8125 34.375 L 50.8125 36.0625 C 50.8125 36.164062 50.726562 36.25 50.625 36.25 Z M 50.625 36.25 "/>
<path style=" stroke:none;fill-rule:nonzero;fill:rgb(27.843139%,16.862746%,16.078432%);fill-opacity:1;" d="M 39.375 28.3125 L 29.625 28.3125 C 29.523438 28.3125 29.4375 28.226562 29.4375 28.125 C 29.4375 28.023438 29.523438 27.9375 29.625 27.9375 L 39.375 27.9375 C 39.476562 27.9375 39.5625 28.023438 39.5625 28.125 C 39.5625 28.226562 39.476562 28.3125 39.375 28.3125 Z M 39.375 28.3125 "/>
<path style=" stroke:none;fill-rule:nonzero;fill:rgb(27.843139%,16.862746%,16.078432%);fill-opacity:1;" d="M 35.625 30.5625 L 29.625 30.5625 C 29.523438 30.5625 29.4375 30.476562 29.4375 30.375 C 29.4375 30.273438 29.523438 30.1875 29.625 30.1875 L 35.625 30.1875 C 35.726562 30.1875 35.8125 30.273438 35.8125 30.375 C 35.8125 30.476562 35.726562 30.5625 35.625 30.5625 Z M 35.625 30.5625 "/>
<path style=" stroke:none;fill-rule:nonzero;fill:rgb(27.843139%,16.862746%,16.078432%);fill-opacity:1;" d="M 38.625 32.8125 L 29.625 32.8125 C 29.523438 32.8125 29.4375 32.726562 29.4375 32.625 C 29.4375 32.523438 29.523438 32.4375 29.625 32.4375 L 38.625 32.4375 C 38.726562 32.4375 38.8125 32.523438 38.8125 32.625 C 38.8125 32.726562 38.726562 32.8125 38.625 32.8125 Z M 38.625 32.8125 "/>
<path style=" stroke:none;fill-rule:nonzero;fill:rgb(27.843139%,16.862746%,16.078432%);fill-opacity:1;" d="M 40.875 30.5625 L 37.125 30.5625 C 37.023438 30.5625 36.9375 30.476562 36.9375 30.375 C 36.9375 30.273438 37.023438 30.1875 37.125 30.1875 L 40.875 30.1875 C 40.976562 30.1875 41.0625 30.273438 41.0625 30.375 C 41.0625 30.476562 40.976562 30.5625 40.875 30.5625 Z M 40.875 30.5625 "/>
<path style=" stroke:none;fill-rule:nonzero;fill:rgb(94.509804%,35.686275%,42.352942%);fill-opacity:1;" d="M 22.207031 48.226562 C 21.003906 48.226562 20.023438 47.246094 20.023438 46.042969 L 20.023438 38.707031 C 20.023438 37.503906 21.003906 36.527344 22.207031 36.527344 L 41.542969 36.527344 C 42.746094 36.527344 43.726562 37.503906 43.726562 38.707031 L 43.726562 46.042969 C 43.726562 47.246094 42.746094 48.226562 41.542969 48.226562 Z M 22.207031 48.226562 "/>
<path style=" stroke:none;fill-rule:nonzero;fill:rgb(27.843139%,16.862746%,16.078432%);fill-opacity:1;" d="M 41.542969 37.050781 C 42.457031 37.050781 43.199219 37.792969 43.199219 38.707031 L 43.199219 46.042969 C 43.199219 46.957031 42.457031 47.699219 41.542969 47.699219 L 22.207031 47.699219 C 21.292969 47.699219 20.550781 46.957031 20.550781 46.042969 L 20.550781 38.707031 C 20.550781 37.792969 21.292969 37.050781 22.207031 37.050781 L 41.542969 37.050781 M 41.542969 36 L 22.207031 36 C 20.710938 36 19.5 37.210938 19.5 38.707031 L 19.5 46.042969 C 19.5 47.539062 20.710938 48.75 22.207031 48.75 L 41.542969 48.75 C 43.039062 48.75 44.25 47.539062 44.25 46.042969 L 44.25 38.707031 C 44.25 37.210938 43.039062 36 41.542969 36 Z M 41.542969 36 "/>
<path style=" stroke:none;fill-rule:nonzero;fill:rgb(100%,100%,100%);fill-opacity:1;" d="M 25.421875 43.214844 L 25.421875 45.46875 L 24.101562 45.46875 L 24.101562 39.070312 L 26.597656 39.070312 C 27.078125 39.070312 27.5 39.160156 27.867188 39.335938 C 28.230469 39.511719 28.511719 39.757812 28.707031 40.082031 C 28.902344 40.40625 29.003906 40.777344 29.003906 41.1875 C 29.003906 41.816406 28.789062 42.308594 28.359375 42.671875 C 27.929688 43.035156 27.335938 43.214844 26.578125 43.214844 Z M 25.421875 42.144531 L 26.597656 42.144531 C 26.949219 42.144531 27.214844 42.066406 27.394531 41.898438 C 27.578125 41.734375 27.671875 41.503906 27.671875 41.195312 C 27.671875 40.882812 27.578125 40.628906 27.394531 40.4375 C 27.210938 40.242188 26.953125 40.144531 26.628906 40.136719 L 25.421875 40.136719 Z M 29.90625 45.46875 L 29.90625 39.070312 L 31.875 39.070312 C 32.4375 39.070312 32.941406 39.195312 33.386719 39.449219 C 33.832031 39.703125 34.175781 40.0625 34.425781 40.53125 C 34.675781 41 34.800781 41.53125 34.800781 42.125 L 34.800781 42.417969 C 34.800781 43.015625 34.675781 43.542969 34.433594 44.003906 C 34.1875 44.46875 33.84375 44.828125 33.398438 45.082031 C 32.953125 45.335938 32.449219 45.464844 31.890625 45.46875 Z M 31.226562 40.136719 L 31.226562 44.410156 L 31.863281 44.410156 C 32.378906 44.410156 32.773438 44.242188 33.046875 43.902344 C 33.316406 43.566406 33.457031 43.085938 33.464844 42.457031 L 33.464844 42.121094 C 33.464844 41.46875 33.328125 40.976562 33.058594 40.640625 C 32.789062 40.304688 32.394531 40.136719 31.878906 40.136719 Z M 39.605469 42.855469 L 37.074219 42.855469 L 37.074219 45.46875 L 35.757812 45.46875 L 35.757812 39.070312 L 39.921875 39.070312 L 39.921875 40.136719 L 37.074219 40.136719 L 37.074219 41.789062 L 39.605469 41.789062 Z M 39.605469 42.855469 "/>
</g>
</svg>
